Note. German Audio

Format                                   : MPEG-4
Format profile                           : Base Media / Version 2
Codec ID                                 : mp42
File size                                : 1.36 GiB
Duration                                 : 2h 22mn
Overall bit rate mode                    : Variable
Overall bit rate                         : 1 370 Kbps

Video
ID                                       : 1
Format                                   : AVC
Format/Info                              : Advanced Video Codec
Format profile                           : High@L3.0
Format settings, CABAC                   : Yes
Format settings, ReFrames                : 4 frames
Codec ID                                 : avc1
Codec ID/Info                            : Advanced Video Coding
Duration                                 : 2h 22mn
Bit rate mode                            : Variable
Bit rate                                 : 1 303 Kbps
Maximum bit rate                         : 3 340 Kbps
Width                                    : 720 pixels
Height                                   : 396 pixels
Display aspect ratio                     : 16:9
Frame rate mode                          : Constant
Frame rate                               : 25.000 fps
Standard                                 : PAL
Color space                              : YUV
Chroma subsampling                       : 4:2:0
Bit depth                                : 8 bits
Scan type                                : Progressive
Bits/(Pixel*Frame)                       : 0.183
Stream size                              : 1.30 GiB (95%)
Language                                 : English

Audio
ID                                       : 2
Format                                   : AAC
Format/Info                              : Advanced Audio Codec
Format profile                           : LC
Codec ID                                 : 40
Duration                                 : 2h 22mn
Bit rate mode                            : Variable
Bit rate                                 : 61.9 Kbps
Maximum bit rate                         : 69.8 Kbps
Channel(s)                               : 2 channels
Channel positions                        : Front: L R
Sampling rate                            : 48.0 KHz
Compression mode                         : Lossy
Stream size                              : 63.1 MiB (5%)
Title                                    : MP3 2-ch 48KHz
Language                                 : German

Screens.  http://bayimg.com/MAMPhAAEn

          http://bayimg.com/mampiAAen

          http://bayimg.com/MAMPjAAeN

Enjoy.